<svg xmlns="http://www.w3.org/2000/svg" xml:space="preserve" width="61.606" height="55.459" viewBox="0 0 16.3 14.674"><g stroke="none" style="display:inline;stroke:#1a1a1a;stroke-opacity:1"><path d="M106.93 79.362c12.177.548 23.077 8.612 23.42 22.121.29 11.405-6.931 18.504-11.688 23.876-1.189 1.342-2.225 2.565-2.961 3.856s-1.218 2.89-.626 4.446c.592 1.557 1.968 2.571 3.79 3.386 1.821.814 4.24 1.49 7.534 2.15 9.504 1.906 17.69 1.632 24.909-1.164 6.439-2.495 11.993-7.076 17.073-13.486 1.974 3.346 3.903 7.903 4.846 13.454 1.141 6.72.927 14.338-1.841 21.35-2.768 7.01-8.034 13.468-17.35 18.094-9.317 4.625-22.741 7.37-41.645 6.568-14.672-.621-24.73-3.74-31.37-7.986-6.642-4.246-9.94-9.579-11.234-15.042s-.516-11.107 1.303-15.69c1.82-4.584 4.772-8.03 7.091-9.155 7.155-3.472 10.742-6.187 11.875-9.562.566-1.688.269-3.453-.472-4.85-.74-1.397-1.836-2.545-3.044-3.659q-.184-.17-.373-.34a27 27 0 0 0 3.421-.852c1.305-.426 2.439-.933 3.382-1.65.943-.718 1.78-1.78 1.865-3.133.083-1.352-.616-2.573-1.6-3.535s-2.322-1.81-4.126-2.68c-2.974-1.436-3.879-4.62-5.313-7.674-.674-1.434-1.54-2.994-3.231-3.766 6.103-11.07 16.557-15.519 26.366-15.077m-24.207 34.906c-.965.095-1.9.205-2.934.238 1.031-.034 1.972-.143 2.934-.238m29.47 30.04c-4.26.282-8.42 2.067-12.013 6.086-3.505 3.921-4.254 8.551-2.788 12.318 1.467 3.766 4.95 6.612 9.301 7.665 5.722 1.384 14.437 2.371 23.705.309s19.08-7.26 26.56-18.063c1-1.442-.32-3.353-2.023-2.93-11.016 2.74-20.69-.734-29.672-3.306-4.492-1.286-8.81-2.36-13.07-2.079m.25 3.797c3.432-.226 7.377.678 11.77 1.937 7.508 2.15 16.35 5.254 26.402 4.224-6.347 7.251-13.771 11.088-21.044 12.706-8.515 1.895-16.726.975-21.983-.297-3.28-.794-5.695-2.884-6.652-5.341s-.66-5.337 2.083-8.406c3.028-3.388 5.99-4.596 9.423-4.823" style="baseline-shift:baseline;display:inline;overflow:visible;opacity:1;vector-effect:none;fill:#a0892c;fill-opacity:1;stroke:none;stroke-width:1;stroke-linecap:round;stroke-linejoin:round;stroke-miterlimit:0;stroke-opacity:1;stop-color:#000;stop-opacity:1" transform="translate(23.19 24.531)scale(-.13052)"/><path d="M78.518 97.805c.173.002.298.03.388.063.357.132.848.686 1.445 1.956 1.193 2.54 2.465 7.241 7.103 9.479 1.576.76 2.602 1.47 3.12 1.976.336.328.427.51.452.574-.028.043-.112.159-.36.348-.42.32-1.217.72-2.262 1.061-4.177 1.365-12.144 1.79-18.439.523-6.116-1.232-9.111-2.954-10.73-4.822-1.618-1.87-2.099-4.163-2.585-7.203a2 2 0 0 1-.044-.324v-.008l.008-.012v-.008c.416-.08 1.791-.046 3.623.115 3.803.333 9.535.74 15.224-2.57 1.603-.932 2.538-1.153 3.057-1.148" style="baseline-shift:baseline;display:inline;overflow:visible;opacity:1;vector-effect:none;fill:#a05a2c;fill-opacity:1;stroke:none;stroke-width:1;stroke-linecap:round;stroke-linejoin:round;stroke-miterlimit:0;stroke-opacity:1;stop-color:#000;stop-opacity:1" transform="translate(23.19 24.531)scale(-.13052)"/><path d="M112.193 144.307c4.26-.281 8.577.792 13.069 2.078 8.983 2.572 18.658 6.046 29.674 3.307 1.702-.423 3.022 1.487 2.023 2.93-7.479 10.803-17.295 16.002-26.562 18.064-9.268 2.062-17.984 1.074-23.706-.31-4.352-1.053-7.834-3.896-9.3-7.663-1.467-3.766-.714-8.399 2.79-12.32 3.593-4.02 7.752-5.805 12.012-6.086m.25 3.797c-3.432.227-6.398 1.437-9.425 4.824-2.743 3.07-3.037 5.948-2.08 8.405s3.368 4.55 6.648 5.343c5.258 1.272 13.47 2.192 21.984.297 7.274-1.618 14.698-5.456 21.045-12.707-10.051 1.03-18.895-2.073-26.402-4.223-4.394-1.258-8.337-2.166-11.77-1.939m-5.342-72.543c13.798.621 26.66 10.285 27.055 25.827.332 13.063-8.066 21.328-12.643 26.497-1.144 1.292-2.046 2.404-2.506 3.21-.46.808-.43 1.073-.376 1.212.053.14.417.655 1.785 1.267 1.37.612 3.589 1.262 6.735 1.893 9.026 1.81 16.38 1.492 22.779-.986 6.398-2.478 11.946-7.154 17.216-14.46a1.903 1.903 0 0 1 3.068-.028c2.911 3.893 5.534 10.11 6.767 17.37 1.233 7.262 1.032 15.565-2.055 23.385s-9.119 15.1-19.2 20.106c-10.08 5.005-24.152 7.78-43.498 6.96-15.134-.64-25.866-3.853-33.259-8.58s-11.377-11.01-12.884-17.37c-1.507-6.359-.605-12.745 1.47-17.971 2.074-5.227 5.232-9.367 8.963-11.178 6.843-3.32 9.479-5.991 9.934-7.349.228-.678.159-1.117-.233-1.857s-1.194-1.66-2.261-2.644c-.868-.8-1.895-1.636-2.973-2.538-3.823.204-7.961-.046-11.768-.812-6.554-1.32-10.477-3.315-12.856-6.062-2.38-2.747-2.97-5.975-3.469-9.09-.16-.999-.152-1.99.337-2.915.49-.926 1.444-1.499 2.269-1.718 1.649-.44 3.205-.164 5.072 0 3.733.327 8.36.62 12.979-2.067.99-.576 1.916-1.012 2.795-1.295 6.632-13.44 19.128-19.33 30.757-18.807m-.17 3.8c-9.81-.44-20.263 4.008-26.366 15.078 1.692.772 2.557 2.332 3.23 3.766 1.435 3.055 2.34 6.238 5.314 7.673 1.804.87 3.142 1.719 4.126 2.68.984.963 1.683 2.184 1.6 3.536-.084 1.353-.922 2.415-1.865 3.132s-2.077 1.225-3.382 1.651a27 27 0 0 1-3.42.852l.372.34c1.208 1.114 2.304 2.262 3.044 3.659s1.038 3.162.472 4.85c-1.133 3.375-4.72 6.09-11.875 9.562-2.32 1.126-5.272 4.57-7.091 9.154-1.82 4.584-2.597 10.228-1.303 15.691s4.592 10.796 11.233 15.042 16.699 7.365 31.37 7.986c18.905.801 32.33-1.943 41.646-6.568 9.316-4.626 14.582-11.083 17.35-18.095s2.982-14.63 1.841-21.35c-.943-5.55-2.872-10.107-4.846-13.453-5.08 6.41-10.634 10.991-17.073 13.486-7.218 2.796-15.405 3.07-24.909 1.164-3.293-.66-5.713-1.336-7.535-2.15-1.821-.815-3.197-1.83-3.789-3.386s-.11-3.155.626-4.446 1.772-2.514 2.961-3.856c4.757-5.372 11.979-12.471 11.689-23.876-.344-13.51-11.244-21.573-23.42-22.121M78.518 97.806c-.519-.005-1.455.216-3.057 1.148-5.689 3.31-11.421 2.903-15.224 2.57-1.832-.16-3.207-.195-3.623-.115 0 .01-.007.02-.008.028-.003.024.004.08.044.324.486 3.04.967 5.334 2.585 7.203 1.618 1.868 4.614 3.59 10.73 4.822 6.295 1.268 14.262.842 18.44-.523 1.044-.34 1.84-.741 2.26-1.06.25-.19.333-.306.36-.35-.024-.063-.115-.245-.45-.573-.519-.506-1.545-1.216-3.12-1.976-4.64-2.238-5.911-6.939-7.104-9.479-.597-1.27-1.088-1.824-1.445-1.956a1.2 1.2 0 0 0-.388-.063" style="display:inline;fill:#000;stroke:none;stroke-width:0;stroke-linecap:round;stroke-linejoin:round;stroke-miterlimit:0;stroke-dasharray:none;paint-order:markers stroke fill" transform="translate(23.19 24.531)scale(-.13052)"/><path d="M94.086 87.049a2.24 2.24 0 0 1 1.585.658l4.687 4.687 4.629-4.626a2.24 2.24 0 0 1 1.585-.658 2.24 2.24 0 0 1 1.585.658 2.24 2.24 0 0 1 0 3.17l-4.629 4.626 4.475 4.474a2.24 2.24 0 0 1 0 3.174 2.24 2.24 0 0 1-3.17 0l-4.475-4.474-4.41 4.412a2.24 2.24 0 0 1-3.172 0 2.24 2.24 0 0 1 0-3.173l4.412-4.413-4.687-4.687a2.24 2.24 0 0 1 0-3.17 2.24 2.24 0 0 1 1.585-.658" style="baseline-shift:baseline;display:inline;overflow:visible;opacity:1;stroke:none;stroke-width:.783283;stroke-linecap:round;stroke-linejoin:round;stroke-miterlimit:2;stroke-dasharray:none;stroke-opacity:1;paint-order:stroke markers fill;stop-color:#000;stop-opacity:1" transform="translate(23.19 24.531)scale(-.13052)"/></g></svg>