<svg xmlns="http://www.w3.org/2000/svg" xml:space="preserve" width="61.606" height="55.459" viewBox="0 0 16.3 14.674"><g stroke="none" style="display:inline;stroke:#1a1a1a;stroke-width:1.00371;stroke-dasharray:none;stroke-opacity:1"><path d="M123.556 79.362c-12.176.548-23.076 8.612-23.42 22.121-.29 11.405 6.932 18.504 11.688 23.876 1.19 1.342 2.226 2.565 2.962 3.856s1.218 2.89.626 4.446c-.593 1.557-1.968 2.571-3.79 3.386-1.821.814-4.241 1.49-7.534 2.15-9.504 1.906-17.69 1.632-24.909-1.164-6.44-2.495-11.993-7.076-17.073-13.486-1.974 3.346-3.904 7.903-4.846 13.454-1.141 6.72-.928 14.338 1.84 21.35 2.77 7.01 8.034 13.468 17.351 18.094 9.317 4.625 22.741 7.37 41.645 6.568 14.672-.621 24.73-3.74 31.37-7.986 6.642-4.246 9.939-9.579 11.234-15.042s.516-11.107-1.303-15.69c-1.82-4.584-4.772-8.03-7.091-9.155-7.155-3.472-10.742-6.187-11.875-9.562-.566-1.688-.269-3.453.471-4.85s1.837-2.545 3.045-3.659l.372-.34a27 27 0 0 1-3.42-.852c-1.305-.426-2.439-.933-3.382-1.65-.943-.718-1.781-1.78-1.865-3.133-.083-1.352.616-2.573 1.6-3.535s2.322-1.81 4.126-2.68c2.974-1.436 3.878-4.62 5.313-7.674.674-1.434 1.539-2.994 3.231-3.766-6.103-11.07-16.557-15.519-26.366-15.077m24.208 34.906c.965.095 1.9.205 2.934.238-1.032-.034-1.972-.143-2.934-.238m-29.47 30.04c4.26.282 8.42 2.067 12.013 6.086 3.505 3.921 4.254 8.551 2.787 12.318s-4.948 6.612-9.3 7.665c-5.722 1.384-14.438 2.371-23.705.309-9.268-2.062-19.08-7.26-26.56-18.063-1-1.442.32-3.353 2.023-2.93 11.016 2.74 20.689-.734 29.672-3.306 4.492-1.286 8.81-2.36 13.07-2.079m-.25 3.797c-3.432-.226-7.377.678-11.77 1.937-7.508 2.15-16.35 5.254-26.402 4.224 6.347 7.251 13.77 11.088 21.044 12.706 8.515 1.895 16.725.975 21.983-.297 3.28-.794 5.695-2.884 6.652-5.341s.66-5.337-2.083-8.406c-3.028-3.388-5.99-4.596-9.423-4.823" style="baseline-shift:baseline;display:inline;overflow:visible;opacity:1;fill:#fc0;stroke:none;stroke-width:1.00371;stroke-linecap:round;stroke-linejoin:round;stroke-miterlimit:0;stroke-dasharray:none;stroke-opacity:1;stop-color:#000;stop-opacity:1" transform="translate(-6.891 -9.858)scale(.13052)"/><path d="M151.97 97.805c-.174.002-.3.03-.389.063-.358.132-.849.686-1.445 1.956-1.193 2.54-2.465 7.241-7.103 9.479-1.576.76-2.603 1.47-3.12 1.976-.336.328-.427.51-.452.574.028.043.112.159.36.348.42.32 1.217.72 2.261 1.061 4.178 1.365 12.145 1.79 18.44.523 6.116-1.232 9.111-2.954 10.73-4.822 1.618-1.87 2.099-4.163 2.585-7.203.04-.244.046-.3.044-.324v-.008l-.008-.012v-.008c-.416-.08-1.791-.046-3.623.115-3.803.333-9.536.74-15.224-2.57-1.603-.932-2.538-1.153-3.057-1.148z" style="baseline-shift:baseline;display:inline;overflow:visible;opacity:1;fill:#ff7f2a;stroke:none;stroke-width:1.00371;stroke-linecap:round;stroke-linejoin:round;stroke-miterlimit:0;stroke-dasharray:none;stroke-opacity:1;stop-color:#000;stop-opacity:1" transform="translate(-6.891 -9.858)scale(.13052)"/><path d="M135.605 95.162a4.87 4.87 0 0 1-4.869 4.87 4.87 4.87 0 0 1-4.868-4.87 4.87 4.87 0 0 1 4.868-4.868 4.87 4.87 0 0 1 4.87 4.868m-17.312 49.145c-4.26-.281-8.576.792-13.068 2.078-8.983 2.572-18.658 6.046-29.674 3.307a1.903 1.903 0 0 0-2.023 2.93c7.479 10.803 17.295 16.002 26.562 18.064 9.268 2.062 17.984 1.074 23.705-.31 4.352-1.053 7.834-3.896 9.301-7.663 1.467-3.766.714-8.399-2.79-12.32-3.593-4.02-7.753-5.805-12.013-6.086m-.25 3.797c3.433.227 6.398 1.437 9.426 4.824 2.743 3.07 3.037 5.948 2.08 8.405s-3.368 4.55-6.648 5.343c-5.258 1.272-13.47 2.192-21.985.297-7.273-1.618-14.697-5.456-21.044-12.707 10.051 1.03 18.895-2.073 26.402-4.223 4.394-1.258 8.337-2.166 11.77-1.939m5.343-72.543c-13.798.621-26.66 10.285-27.055 25.827-.332 13.063 8.066 21.328 12.643 26.497 1.144 1.292 2.046 2.404 2.506 3.21.46.808.43 1.073.376 1.212-.053.14-.417.655-1.786 1.267s-3.588 1.262-6.735 1.893c-9.025 1.81-16.38 1.492-22.778-.986s-11.946-7.154-17.216-14.46a1.903 1.903 0 0 0-3.068-.028c-2.911 3.893-5.534 10.11-6.767 17.37-1.233 7.262-1.032 15.565 2.055 23.385s9.118 15.1 19.2 20.106c10.08 5.005 24.151 7.78 43.498 6.96 15.134-.64 25.865-3.853 33.259-8.58 7.393-4.727 11.377-11.01 12.884-17.37 1.506-6.359.605-12.745-1.47-17.971-2.074-5.227-5.232-9.367-8.963-11.178-6.844-3.32-9.48-5.991-9.935-7.349-.227-.678-.158-1.117.234-1.857s1.194-1.66 2.26-2.644c.869-.8 1.896-1.636 2.974-2.538 3.822.204 7.96-.046 11.768-.812 6.554-1.32 10.477-3.315 12.856-6.062 2.38-2.747 2.97-5.975 3.468-9.09.16-.999.153-1.99-.336-2.915-.49-.926-1.444-1.499-2.269-1.718-1.65-.44-3.205-.164-5.072 0-3.733.327-8.36.62-12.979-2.067-.99-.576-1.916-1.012-2.795-1.295-6.632-13.44-19.128-19.33-30.757-18.807m.17 3.8c9.809-.44 20.263 4.008 26.366 15.078-1.692.772-2.557 2.332-3.23 3.766-1.436 3.055-2.34 6.238-5.314 7.673-1.804.87-3.142 1.719-4.126 2.68-.984.963-1.683 2.184-1.6 3.536.084 1.353.922 2.415 1.865 3.132s2.077 1.225 3.382 1.651c1.035.339 2.186.624 3.42.852l-.372.34c-1.208 1.114-2.304 2.262-3.045 3.659-.74 1.397-1.037 3.162-.47 4.85 1.132 3.375 4.719 6.09 11.874 9.562 2.32 1.126 5.272 4.57 7.09 9.154 1.82 4.584 2.598 10.228 1.304 15.691-1.295 5.463-4.592 10.796-11.233 15.042s-16.7 7.365-31.37 7.986c-18.905.801-32.33-1.943-41.646-6.568-9.317-4.626-14.582-11.083-17.35-18.095S56.119 144.72 57.26 138c.942-5.55 2.872-10.107 4.846-13.453 5.08 6.41 10.634 10.991 17.073 13.486 7.218 2.796 15.405 3.07 24.909 1.164 3.293-.66 5.713-1.336 7.535-2.15 1.821-.815 3.196-1.83 3.789-3.386.592-1.556.11-3.155-.626-4.446s-1.772-2.514-2.962-3.856c-4.756-5.372-11.978-12.471-11.688-23.876.344-13.51 11.244-21.573 23.42-22.121m28.413 18.444c.519-.005 1.454.216 3.057 1.148 5.688 3.31 11.421 2.903 15.224 2.57 1.832-.16 3.207-.195 3.623-.115 0 .01.007.02.008.028.003.024-.004.08-.044.324-.486 3.04-.967 5.334-2.586 7.203-1.618 1.868-4.613 3.59-10.73 4.822-6.294 1.268-14.261.842-18.439-.523-1.044-.34-1.841-.741-2.26-1.06-.25-.19-.333-.306-.36-.35.024-.063.115-.245.45-.573.518-.506 1.545-1.216 3.12-1.976 4.64-2.238 5.91-6.939 7.104-9.479.596-1.27 1.087-1.824 1.445-1.956.09-.033.215-.061.388-.063" style="display:inline;fill:#000;stroke:none;stroke-width:1.00371;stroke-linecap:round;stroke-linejoin:round;stroke-miterlimit:0;stroke-dasharray:none;paint-order:markers stroke fill" transform="translate(-6.891 -9.858)scale(.13052)"/></g></svg>