<svg xmlns="http://www.w3.org/2000/svg" xml:space="preserve" width="194.19" height="174.216" viewBox="0 0 51.379 46.095"><g style="display:inline"><path d="M61.797 121.132c-10.587 14.156-20.12 68.023 56.38 64.782 59.612-2.526 47.063-45.615 34.96-51.487-27.994-13.586 6.19-15.884 2.217-31.268-9.602-37.177-56.38-30.775-57.12-1.724-.621 24.467 31.235 30.73 5.477 35.896-18.53 3.717-31.081-1.181-41.914-16.2" style="display:inline;fill:#fc0;stroke:none;stroke-width:.965999;stroke-linecap:round;stroke-linejoin:round;stroke-miterlimit:0;stroke-dasharray:none;stroke-opacity:.229966;paint-order:markers stroke fill" transform="translate(74.593 78.952)scale(-.42435)"/><path d="M155.983 97.308c10.308 5.998 20.718-1.4 19.733 4.754-.984 6.155-2.15 11.034-14.822 13.586-13.31 2.68-32.206-1.536-18.688-8.058 7.612-3.673 4.346-15.77 13.777-10.282" style="fill:#ff7f2a;stroke:none;stroke-width:.965999;stroke-linecap:round;stroke-linejoin:round;stroke-miterlimit:0;stroke-dasharray:none;stroke-opacity:.229966;paint-order:markers stroke fill" transform="translate(74.593 78.952)scale(-.42435)"/><path d="M75.092 151.538c23.266 5.785 40.555-14.691 53.795.123 6.247 6.99 2.093 15.018-5.54 16.865-10.979 2.656-33.852 3.816-48.255-16.988" style="display:inline;fill:none;stroke:#000;stroke-width:3;stroke-linecap:round;stroke-linejoin:round;stroke-miterlimit:0;stroke-dasharray:none;stroke-opacity:1;paint-order:markers stroke fill" transform="translate(74.593 78.952)scale(-.42435)"/><path d="M126.487 91.403c1.727-1.196 2.298 2.544 4.365 2.92s3.918-2.924 5.113-1.197-2.544 2.298-2.92 4.365 2.924 3.918 1.197 5.114-2.298-2.544-4.365-2.92-3.918 2.924-5.114 1.196 2.544-2.298 2.92-4.365-2.924-3.918-1.196-5.113" style="fill:#000;fill-opacity:1;stroke:none;stroke-width:0;stroke-linecap:round;stroke-linejoin:round;stroke-miterlimit:0;stroke-dasharray:none;stroke-opacity:1;paint-order:markers stroke fill" transform="rotate(172.392 43.236 42.736)scale(.51386)"/></g></svg>