<svg xmlns="http://www.w3.org/2000/svg" xml:space="preserve" width="61.647" height="55.459" viewBox="0 0 16.311 14.674"><g style="display:inline;stroke:#1a1a1a;stroke-opacity:1" transform="translate(-6.988 -9.975)scale(.1314)"><path d="M61.797 121.132c-10.587 14.156-20.12 68.023 56.38 64.782 59.612-2.526 47.063-45.615 34.96-51.487-27.994-13.586 6.19-15.884 2.217-31.268-9.602-37.177-56.38-30.775-57.12-1.724-.621 24.467 31.235 30.73 5.477 35.896-18.53 3.717-31.081-1.181-41.914-16.2" style="display:inline;fill:#fc0;stroke:#1a1a1a;stroke-width:3.04403;stroke-linecap:round;stroke-linejoin:round;stroke-miterlimit:0;stroke-dasharray:none;stroke-opacity:1;paint-order:markers stroke fill"/><path d="M155.983 97.308c10.308 5.998 20.718-1.4 19.733 4.754-.984 6.155-2.15 11.034-14.822 13.586-13.31 2.68-32.206-1.536-18.688-8.058 7.612-3.673 4.346-15.77 13.777-10.282" style="fill:#ff7f2a;stroke:#1a1a1a;stroke-width:3.04403;stroke-linecap:round;stroke-linejoin:round;stroke-miterlimit:0;stroke-dasharray:none;stroke-opacity:1;paint-order:markers stroke fill"/><path d="M75.092 151.538c23.266 5.785 40.555-14.691 53.795.123 6.247 6.99 2.093 15.018-5.54 16.865-10.979 2.656-33.852 3.816-48.255-16.988" style="display:inline;fill:none;stroke:#1a1a1a;stroke-width:3;stroke-linecap:round;stroke-linejoin:round;stroke-miterlimit:0;stroke-dasharray:none;stroke-opacity:1;paint-order:markers stroke fill"/><circle cx="130.736" cy="95.162" r="4.869" stroke="none" style="fill:#000;fill-opacity:1;stroke:none;stroke-width:5.42381;stroke-linecap:round;stroke-linejoin:round;stroke-miterlimit:0;stroke-dasharray:none;stroke-opacity:1;paint-order:markers stroke fill"/></g></svg>