<svg xmlns="http://www.w3.org/2000/svg" xml:space="preserve" width="268.357" height="1011.071" viewBox="0 0 71.003 267.512"><g style="display:inline;opacity:1"><path d="M-10.71 251.486c-4.358.268-9.226 4.345-11.742 14.754-5.972 4.525-7.277 9.994-9.232 14.543-4.696 10.928-8.223 29.516-8.585 35.308-.362 5.791-2.448 34.485 18.1 52.094 6.71 5.75-3.665 47.74 2.227 47.74 22.577 0 28.053.845 17.194-7.782-8.545-6.789-4.612-26.221 3.731-33.614 2.715-2.407 5.06-4.916 7.052-7.5-2.655 1.462-3.795-10.4-9.343-16.889-14.2-16.607-7.518-21.085-5.969-37.969a56 56 0 0 0-.12-4.92c6.923-6.621 12.861-14.675 15.507-22.747.898-2.74.396-7.834-1.25-6.695-1.832 1.267-8.428 7.153-16.067 13.334-.721-9.85 1.598-16.622 19.172-15.681-4.09-6.064-11.502-9.273-13.75-8.628 4.73-7.997-.554-15.74-6.925-15.348m20.675 23.976c.57.902 1.045 1.755 1.434 2.567a17 17 0 0 0-1.434-2.567m2.143 48.34c.976 1.809 1.755 3.632 2.424 5.455a41 41 0 0 0-2.424-5.456" style="display:inline;opacity:1;fill:#ff80b2;fill-opacity:1;stroke:none;stroke-width:0;stroke-linecap:round;stroke-linejoin:round;stroke-miterlimit:2;stroke-dasharray:none;stroke-opacity:1;paint-order:markers stroke fill" transform="translate(50.606 -233.791)scale(1.20075)"/><path d="M13.33 194.712c-20.6.695-33.83 53.251-8.914 47.073-.236 1.976-1.254 15.065-2.816 33.932-9.973 1.455-11.393 7.425-10.807 15.426 7.639-6.18 14.235-12.067 16.066-13.334 1.647-1.14 2.149 3.955 1.25 6.695-2.645 8.072-8.583 16.126-15.507 22.747.108 1.628.16 3.273.121 4.92-1.41 15.371-7.075 20.46 2.635 33.779-2.451 25.346-5.212 51.024-8.039 71.544h4.962c2.83-24.93 5.253-46.813 7.342-66.16 5.136 7.17 6.075 18.762 9.039 15.132 8.467-10.37 11.903-26.973 3.446-42.665-3.7-6.865-6.351-7.781-8.427-10.872.65-6.305 1.255-12.27 1.82-17.93 4.887-5 11.095-9.05 4.464-19.537a60 60 0 0 0-2.54-.085c3.622-37.77 5.256-59.95 6.89-80.659q-.495-.022-.986-.006zm-18.288 58.869c-4.61 1.248-4.191 10.026-2.444 11.96.902.999 2.301 1.335 3.618 1.293 3.294-5.812 2.164-9.936-1.174-13.253" style="display:inline;opacity:1;fill:#fff;fill-opacity:1;stroke:none;stroke-width:0;stroke-linecap:round;stroke-linejoin:round;stroke-miterlimit:2;stroke-dasharray:none;stroke-opacity:1;paint-order:markers stroke fill" transform="translate(50.606 -233.791)scale(1.20075)"/><path d="M-38.372 289.702c-.657.035-1.134.294-1.383.835-1.038 2.258-2.819 6.373-2.296 9.865.215 1.436 9.091 2.07 16.746 2.547 1.8-1.115 3.692-2.393 5.622-3.77-6.363-3.359-15.144-9.668-18.69-9.477m44.926 7.616c-1.553-.026-3.662.435-6.006 1.05a73 73 0 0 1-5.997 6.954c7.489 1.153 15.88 2.15 15.34.372-.871-2.86-1.688-8.207-2.707-8.334a6 6 0 0 0-.63-.042" style="display:inline;opacity:1;fill:#06f;fill-opacity:1;stroke:none;stroke-width:8.60789;stroke-linecap:square;stroke-miterlimit:2;paint-order:fill markers stroke" transform="translate(50.606 -233.791)scale(1.20075)"/><path d="M-6.5 302.298c-1.342-.04-2.503.298-2.591 1.27-.07.776.494 1.289 1.328 1.58.632.22 1.417.312 2.196.295q1.158-1.18 2.263-2.41c-.851-.407-2.086-.7-3.197-.735m-6.099 5.953c-1.345-.043-2.511.296-2.599 1.27-.064.71.403 1.2 1.122 1.501.558.234 1.267.352 1.995.371q1.395-1.14 2.76-2.362c-.85-.43-2.129-.744-3.278-.78m-9.292 4.865c-1.38.043-2.493.468-2.58 1.494-.083.956.664 1.579 1.737 1.92.9.287 2.029.38 3.096.302a69 69 0 0 0 3.175-2.108c-.712-.818-2.909-1.52-4.822-1.603a8 8 0 0 0-.606-.004zm19.398-56.048c-5.796-.798-5.39 7.788-1.291 9.766 1.365-1.884 2.943-6.603 1.29-9.766M-26.14 269.78a22 22 0 0 0-2.115 3.13 5.103 1.734 0 0 0 4.282-1.712 5.103 1.734 0 0 0-2.167-1.418m-2.887 4.617c-.783 1.62-1.388 3.23-1.996 4.767a5.494 2.549 0 0 0 4.852-2.532 5.494 2.549 0 0 0-2.856-2.235m-2.93 7.028c-.842 2.031-1.645 4.3-2.396 6.688a7.444 3.454 0 0 0 7.237-3.453 7.444 3.454 0 0 0-4.84-3.235m-7.07 27.706a9.94 4.612 0 0 0-.32.002c-.507 2.969-.827 5.416-.924 6.958-.034.546-.083 1.295-.128 2.22a9.94 4.612 0 0 0 1.372.044 9.94 4.612 0 0 0 9.94-4.612 9.94 4.612 0 0 0-9.94-4.612m4.607 37.113a9.94 4.612 0 0 0-2.305.126 55 55 0 0 0 4.065 9.025 9.94 4.612 0 0 0 8.18-4.54 9.94 4.612 0 0 0-9.94-4.611m15.281 22.482a8.788 6.93 0 0 0-2.348.252c1.573 2.398 1.84 7.543 1.591 13.582a8.788 6.93 0 0 0 .757.026 8.788 6.93 0 0 0 8.789-6.93 8.788 6.93 0 0 0-8.789-6.93m4.438-37.35a8.788 6.93 0 0 1-8.789 6.93 8.788 6.93 0 0 1-8.788-6.93 8.788 6.93 0 0 1 8.788-6.93 8.788 6.93 0 0 1 8.789 6.93m27.163-50.534a34 34 0 0 0-3.914.622c-.012 1.067-.156 2.172-.44 3.04a37 37 0 0 1-1.166 3.079 79 79 0 0 1 5.127-.336c.807-1.807 1.073-3.871.393-6.405" style="display:inline;opacity:1;stroke-width:5.81468;stroke-linecap:square;stroke-miterlimit:2;paint-order:fill markers stroke" transform="translate(50.606 -233.791)scale(1.20075)"/></g></svg>