<svg xmlns="http://www.w3.org/2000/svg" xml:space="preserve" width="561.375" height="1011.01" viewBox="0 0 148.53 267.496"><g style="display:inline;opacity:1"><path d="M87.775 255.913c-6.592-.166-13.169 7.453-5.237 17.735-3.971 12.45-4.126 24.15-3.764 33.015-12.035-7.946-29.055-25.385-32.148-27.782-1.583-1.226-2.36 3.833-1.61 6.618 4.186 15.566 20.212 31.704 32.867 37.92-11.146 19.262-9.471 35.883-2.57 47.174 0 8.902 7.015 32.017 7.465 40.39.062 1.145-4.871 2.945-4.96 6.24.47 2.425 17.358 2.268 18.976.59.987-.619-.587-4.413-.66-7.58-.402-17.341 4.143-35.455 6.686-35.455s7.089 18.114 6.687 35.456c-.073 3.166-1.648 6.96-.66 7.579 1.618 1.678 18.507 1.835 18.975-.59-.088-3.295-5.02-5.095-4.96-6.24.45-8.373 7.465-31.488 7.465-40.39 6.958-11.382 8.603-28.18-2.841-47.642 12.679-6.158 28.82-22.365 33.022-37.995.75-2.785-.027-7.844-1.61-6.617-3.08 2.387-19.98 19.7-32.007 27.688.328-8.786.089-20.225-3.788-32.379 12.086-15.668-9.515-25.151-13.528-10.33-1.42-.285-12.089-.285-13.509 0-1.38-5.095-4.837-7.318-8.29-7.405" style="display:inline;opacity:1;fill:#ff80b2;fill-opacity:1;stroke-width:3.96875;stroke-linecap:square;stroke-miterlimit:2;paint-order:fill markers stroke" transform="translate(-327.123 -234.75)scale(1.20075)"/><path d="m91.319 310.778.076-4.302h.001c8.22-6.072 19.608-15.993 26.04-21.996 9.03-2.98-26.254 34.006-26.117 26.298m-46.733.543-.076-4.302c-8.22-6.072-19.609-15.993-26.04-21.996-9.03-2.98 26.253 34.006 26.116 26.298m22.068-37.055c-13.183.468-23.051 6.877-18.202 24.772 4.066 23.344-10.27 29.646-10.27 50.94 0 12.649 4.84 19.846 11.477 24.186 4.52 2.956 3.5 13.163 1.202 17.935-1.685 3.5 4.962 5.98 5.914 1.74 1.31-5.83 5.114-15.525 11.236-15.525s8.42 9.56 10.04 15.097c1.339 4.569 9.162 1.535 7.063-2.327-3.202-5.889 1.336-11.269 3.745-15.196 4.08-6.652 11.016-12.343 10.082-27.61-.827-13.52-13.789-27.855-11.944-51.26 5.877-16.14-7.16-23.22-20.343-22.752m-17.36-.174c-13.13-13.952 7.58-25.904 11.557-8.795-5.303 1.136-10.294 5.133-11.556 8.795m37.203 0c13.13-13.952-7.58-25.904-11.557-8.795 5.303 1.136 10.294 5.133 11.557 8.795" style="display:inline;opacity:1;fill:#fff;stroke-width:0;stroke-linecap:round;stroke-linejoin:round;stroke-miterlimit:2;paint-order:markers stroke fill" transform="translate(-285.326 -234.75)scale(1.20075)"/><path d="M88.88 249.312c-2.339-.586-3.747-4.566.605-6.691.602 1.493 1.587 2.767 3.145 4.065-1.043 2.309-2.524 2.933-3.75 2.626m14.243 3.969c-1.207-.371-2.152-1.67-1.85-4.186 2.004-.306 3.506-.887 4.794-1.853 2.625 4.07-.638 6.747-2.944 6.039m-12.629-6.43a.8.8 0 0 0 .986-.556.8.8 0 0 0-.556-.985.8.8 0 0 0-.986.556.8.8 0 0 0 .556.985m12.52 3.49a.8.8 0 0 0 .986-.557.8.8 0 0 0-.556-.985.8.8 0 0 0-.985.556.8.8 0 0 0 .555.985m-8.397-4.38c-1.13-.3-3.108-1.903-2.377-2.734.927-1.053 3.308 1.518 3.094 2.522-.057.267-.34.312-.717.212m4.036 1.125c-.374-.11-.593-.295-.504-.552.336-.97 3.704-1.94 3.953-.559.195 1.09-2.327 1.439-3.45 1.11m-8.801-6.99c-.411-.124-.926-.42-1.374-.768.026-.758.031-1.456.108-2.087 1.01.448 2.202 1.955 2.051 2.662-.06.283-.374.317-.785.193m17.316 4.824c-.416-.107-.668-.298-.573-.572.236-.683 2.035-1.353 3.13-1.215-.26.58-.615 1.178-.985 1.84-.563.065-1.156.053-1.572-.053m-7.68-3.279c-4.254-.996-8.475-3.718-8.257-6.503 5.403 2.74 9.03 3.559 16.169 4.912-1.276 2.096-4.604 2.365-7.912 1.591m22.647-6.063c-.626-.187-1.112-.523-1.002-.986.087-.37.427-.52.857-.526.431-.006.953.133 1.399.34q.31.63.6 1.274c-.458.126-1.227.086-1.854-.102m-40.246-11.49c-.634-.164-1.313-.527-1.639-.872q.58-.4 1.173-.78c.49.053 1.006.204 1.372.432s.58.532.463.893c-.146.454-.735.49-1.369.327m38.342 7.798c-.628-.187-1.116-.523-1.006-.988.08-.337.37-.493.75-.521.379-.028.844.07 1.271.236q.43.672.84 1.371c-.456.129-1.226.09-1.855-.098m-34.803-9.974c-.635-.164-1.315-.528-1.638-.874q.712-.388 1.429-.74c.45.078.9.236 1.21.456s.479.503.372.833c-.146.454-.737.49-1.373.325m31.535 6.384c-.773-.22-1.378-.621-1.244-1.179.109-.455.55-.628 1.1-.62.548.006 1.206.192 1.75.46q.501.597.994 1.244c-.334.365-1.606.38-2.6.095m-26.882-7.766c-.997-.27-2.078-.94-2.175-1.425q.755-.3 1.496-.55c.603.05 1.263.23 1.736.509.474.278.76.655.619 1.1-.174.547-.9.577-1.676.366m8.597-27.73c.785-1.765 1.912-3.904 3.077-6.067 4.495-.34 1.48 6.704-3.077 6.068m25.396 7.078c-4.23-1.812-3.166-9.4.504-6.785-.12 2.454-.263 4.868-.504 6.785m-15.618-16.925c-1.59-.45-3.088-2.372-1.68-3.83 2.076-2.153 4.667.796 4.037 2.631-.414 1.208-1.402 1.468-2.357 1.199m13.296 3.705c-1.59-.45-3.087-2.371-1.68-3.83 2.077-2.152 4.667.796 4.037 2.632-.414 1.208-1.402 1.468-2.357 1.198" style="display:inline;opacity:1;stroke-width:2.83457;stroke-linecap:square;stroke-miterlimit:2;paint-order:fill markers stroke" transform="rotate(195.572 -257.267 345.176)scale(-2.46314 2.46314)"/><path d="M5.22 196.528c3.048 38.617 8.086 82.353 24.025 222.775h4.963c-8.487-61.606-17.195-173.698-17.911-179.69 30.052 8.668 68.18 11.525 102.902.18-.715 5.993-8.79 117.904-17.277 179.51h4.962c15.939-140.422 18.987-184.158 22.034-222.775-42.511 9.502-84.258 8.99-123.698 0" style="display:inline;opacity:1;fill:#fff;stroke-width:0;stroke-linecap:round;stroke-linejoin:round;stroke-miterlimit:2;paint-order:markers stroke fill" transform="translate(-285.326 -234.75)scale(1.20075)"/><path d="M44.673 297.58c4.607-.127 15.171 6.161 21.36 5.893 6.187-.267 24.433-12.735 26.017-8.18.817 2.347 2.195 6.614 1.34 10.039-.543 2.176-21.469.463-26.759.73-5.29.268-26.56 2.24-25.45-.446 1.14-2.762 2.467-8.007 3.492-8.035" style="display:inline;opacity:1;fill:#06f;fill-opacity:1;stroke:none;stroke-width:8.60789;stroke-linecap:square;stroke-miterlimit:2;paint-order:fill markers stroke" transform="translate(-285.326 -234.75)scale(1.20075)"/><g aria-label="AMPHIFA" style="font-size:13.3835px;line-height:1.2;font-family:&quot;Rubik Spray Paint&quot;;-inkscape-font-specification:&quot;Rubik Spray Paint&quot;;letter-spacing:1.44542px;fill:#0055d4;stroke-width:1.5175;stroke-linecap:round;stroke-linejoin:round;stroke-miterlimit:2;paint-order:markers stroke fill"><path d="M112.536 247.602c-1.945-.916.447-2.637 1.116-2.956-1.037-1.449-.981-3.437 1.309-3.17 1.927-.53 4.117-1.705 6.033-.502.659 2.655-3.177.922-4.406 2.18-1.52.844-.43 3.113 1.152 1.974 2.616-.185.24 3.052-1.352 2.157-2.12-.245-1.923 2.682-3.246 2.96-1.012-.322-1.187-1.878-.606-2.643m-19.477 2.209c-.453-2.549 1.329-4.873 1.035-7.439.595-2.406 2.905-.261 2.197 1.384-.92 2.04 1.48 2.913 2.646 1.398.978-1.077.05-4.81 2.11-4.011 1.695 2.166.226 4.956.023 7.318-.76 2.434-3.018 1.408-3.016-.68-2.049-.596-2.563 3.28-4.61 2.368l-.21-.149zm-23.501.627c-2.045-1.416-.699-4.153.25-5.828.4-1.712 2.467-5.582 4.256-3.067.2 1.334 1.033 3.58 2.59 1.89 1.096-.959 2.977-3.635 4.195-1.473.486 2.343-.16 4.815-.82 7.085-2.19 2.193-2.38-2.023-1.84-3.275-1.601-.118-3.094 2.648-4.887 1.157-1.588-1.793-2.19.636-2.567 1.91-.237.62-.532 1.308-1.177 1.601" style="font-family:&quot;Permanent Marker&quot;;-inkscape-font-specification:&quot;Permanent Marker&quot;;fill:red" transform="matrix(.86006 0 0 1.67639 -285.326 -234.75)"/><path d="M120.765 249.013c1.23-2.134 1.622-4.825 3.465-6.554 1.132-1.631 4.211-2.617 3.975.393-.152 1.591 1.345 2.61 1.987 3.473-.664 1.429-1.077 5.274-3.405 3.41-.769-.903 1.14-2.054-.685-1.65-.903.623-2.16-.562-2.187-.518-.19 1.574-2.301 3.935-3.15 1.446m4.169-3.398c1.484 2.403 2.492-3.187.54-.827-.153.29-.29.603-.54.827m-21.097 4.797c-1.792-1.326.944-2.437 1.798-2.796.632-1.56 2.805-4.542-.015-4.908-1.209-1.472.573-2.478 1.91-2.087 1.332-.43 5.106-.102 4.06 1.568-2.368.047-2.814 2.32-3.266 4.076-.76 1.163.392 2.061.921 2.641-.736 1.93-3.808.725-5.408 1.506m-20.392-3.843c.031-2.206 1.626-4.362 3.212-5.716 1.706-.902 4.25-.402 4.906 1.587 1.099 2.22-1.386 4.534-3.575 4.335-2.616-.456-1.63 3.665-3.736 3.556-1.666-.618-.086-2.755-.807-3.762m3.399-3.058c-.823 2.386 4.367-.337 1.457-.447-.515-.024-1.062.098-1.457.447m-29.645 5.502c1.372-2.41 1.766-5.571 4.236-7.197 1.362-1.898 3.695-.688 3.328 1.494-.155 1.423.991 2.295 1.925 2.861-.547 1.19-1.077 2.393-1.302 3.674-1.38 1.229-3.096-.508-2.028-1.718-1.035.042-3.013.036-3.009-.56-.393 1.466-2.075 4.171-3.15 1.446m4.17-3.398c1.483 2.403 2.491-3.187.54-.827-.154.29-.292.603-.54.827" style="font-family:&quot;Permanent Marker&quot;;-inkscape-font-specification:&quot;Permanent Marker&quot;;fill:#06f" transform="matrix(.86006 0 0 1.67639 -285.326 -234.75)"/><path d="M25.412 235.945c1.7-3.524 3.155-7.51 5.29-10.895 2.625-.022 4.076-5.084 6.448-1.032.344 3.569.7 6.29 4.067 7.207-2.408 1.378-2.15 9.235-5.943 5.984-2.603-1.453 2.822-3.051-.864-2.845-3.294 2.213-3.54-3.2-4.551.19.143 2.2-2.86 5.233-4.004 2.086.023-.337-.252-.49-.443-.695m6.723-5.479c-1.514 1.946 5.073.71 2.16-1.875.03-2.257-1.788 1.587-2.16 1.875m12.508 6.701c-2.525-4.024 1.039-8.34 1.918-12.348-.067-5.566 6.987-.548 3.182 2.444-.925 2.943-4.446 8.798 1.322 6.38 2.112-.793 6.994 1.206 5.02 3.398-3.622-.556-8.273 2.25-11.442.126m14.363-4.214c1.17-5.261 6.538-7.903 10.62-10.705 4.408 1.152 2.925 4.605-1.01 5.373-3.447 1.373-9.564 8.597-2.288 6.196 3.8.051 5.08-1.64 2.92-3.435 1.515-3.965 7.016.45 7.649 2.865-2.702 3.538-7.852 3.669-11.822 4.594-3.484.86-5.923-1.467-6.069-4.888m18.81 2.992c1.694-3.525 3.131-7.515 5.289-10.895 2.625-.022 4.076-5.084 6.448-1.032.343 3.569.7 6.29 4.067 7.207-2.408 1.378-2.15 9.235-5.943 5.984-2.603-1.453 2.821-3.051-.864-2.845-3.295 2.213-3.54-3.2-4.552.19.144 2.2-2.86 5.233-4.003 2.086.023-.337-.252-.49-.442-.695m6.722-5.479c-1.514 1.946 5.073.71 2.16-1.875.03-2.257-1.788 1.587-2.16 1.875m12.487 6.764c-3.117-3.27 1.682-6.635.822-9.567-1.96-5.282 7.241-4.432 10.157-5.12 5.005 1.361-1.967 4.685-4.741 4.467-5.265 1.862 7.095.256 3.33 4.004-1.883 1.6-8.375.277-6.249 3.377 2.598-.438 10.91-1.644 6.97 2.56-3.024.916-7.41 1.958-10.289.28m-45.252-15.665c-1.086 1.357-1.769-2.565-.615-2.368 1.136-.168-.697-1.077-.017-1.72 1.375-.253 3.823-1.828 4.527.043-1.205-.292-4.637 1.474-2.108 1.628 1.854-.133.115 1.631-1.104 1.29-.588-.1-.724.713-.683 1.127m8.345-2.242c1.048 2.39-3.299 3.38-4.568 2.014-.836-2.1 1.706-4.071 3.211-4.737 1.174.61.216 1.734 1.357 2.723m-1.053.8c.462-2.406-2.084-1.584-2.571.093-.312 1.106 2.253.21 2.57-.092m3.608.852c-.23 1.904-1.825.432-1.096-.624-.1-1.718 1.746-4.611 3.481-2.975 2.323 1.94-3.388 2.842-.354 3.439 3.074.637-.32 2.353-1.762.404l-.27-.245zm1.205-2.891c-2.196 1.587 1.54.991 0 0m11.464-.287c-1.98-.412-2.201 1.85-2.755 3.228.829 1.061-1.017 1.36-1.012 0-.491-.96 2.007-3.384-.034-2.79-1.512.159-1.077-2.175.574-1.265 1.084-.046 4.158-1.177 3.852.75-.222-.039-.395.154-.625.077m4.341 3.237c-1.064 2.374-1.599-2.553-2.984.54-.686.996-1.772-.167-1.264-1.004.216-2.413 2.067-5.273 1.618-1.096 2.417 1.08 1.858-5.293 3.144-1.264.252 1.002-.578 1.929-.514 2.824m6.095-3.928c-.488 1.41-4.735 1.183-1.238 1.737 1.716 1.276-4.18 1.083-1.374 1.854 2.913-1.09 2.318 1.615-.186 1.24-2.998.455-1.102-2.536-1.298-3.726-.49-1.294 3.552-1.874 4.096-1.105m-2.735-2.893c-2.227-2.373.775-4.523 2.84-5.31 1.384-.728 2.066 2.044-.118 1.896-4.43 2.025-.299 2.324 1.35 3.574-.946 1.097-3.092.513-4.072-.16m4.957-.067c.935-1.966 1.53-4.264 3.455-5.31 1.993-.592.885 2.949 2.226 3.05 1.014.42-.37 3.039-1.459 3.077-1.076-1.14.608-1.663-1.828-1.45-.536-1.398-.56 1.02-1.264 1.307-.466.564-.961-.268-1.13-.674m2.688-2.192c.707 2.202 1.712-3.013 0 0m5.033 3.11c-1.642-1.49.452-5.98 2.267-6.262 1.28.229.35 3.117 1.997 1.938 1.06-1.121 2.737-2.932 3.313-.54-.296.888-.746 6.6-2.158 3.617 2.022-4.502-3.14.812-3.978-1.517-.452.907-.636 2.147-1.441 2.764m8.8-.404c-1.308-1.7 1.254-3.117.118-4.805 1.426-.696 3.876-1.76 5.031-.657.275 1.512-4.908 1.218-2.452 1.888 2.598-.2.604 2.222-1.162 1.433-1.863 1.924 6.051-.08 1.786 2.292-1.078.059-2.352.522-3.321-.151m-41.195-3.768c-1.98-.412-2.2 1.85-2.756 3.228.829 1.061-1.017 1.36-1.012 0-.491-.96 2.008-3.384-.034-2.79-1.512.159-1.078-2.175.574-1.265 1.084-.046 4.158-1.177 3.852.75-.222-.04-.395.154-.624.077m4.341 3.237c-1.064 2.374-1.6-2.553-2.984.54-.686.996-1.773-.167-1.264-1.004.215-2.413 2.066-5.273 1.618-1.096 2.417 1.08 1.858-5.293 3.144-1.264.251 1.002-.58 1.929-.514 2.824m6.095-3.928c-.49 1.409-4.735 1.183-1.238 1.737 1.716 1.276-4.18 1.082-1.374 1.854 2.912-1.09 2.318 1.615-.186 1.24-2.998.455-1.102-2.536-1.298-3.726-.49-1.294 3.552-1.874 4.096-1.105m3.178 2.537c-.74.74-1.273 3.655-2.335 1.753 1.16-1.353.31-2.487.151-3.995-.058-1.651 1.715.138 1.323 1.08.582-.727 1.961-2.858 2.563-1.138-.57.821-1.315 1.35-1.702 2.3m-50.544.497c-1.946-1.556 1.642-1.235.599-2.317-1.417-1.15.769-1.738 1.795-1.913.747-1.213 4.628.12 2.723.894-2.096-1.191-4.739 2.84-1.39 1.72 1.152.111.113 1.817-1.147 1.415-1.454-.192-1.417 1.128-1.846 1.98-.942.026-1.072-1.087-.734-1.779m5.42 1.813c-1.22-1.535 3.76-3.177 1.754-4.855-2.947-1.098 2.34-2.459 3.397-1.046-.062.421-3.763 3.336-1.964 4.45 1.998 1.56-2.687 1.026-3.186 1.45m5.227-.826c-.103-1.67.351-3.991 1.972-4.856 2.443-2.337 4.532 4.08.439 3.583.798.902 3.803.67 2.697 2.183-2.61-.994-3.616-.85-5.083-.464.082-.156-.1-.293-.025-.446m2.815-3.852c-2.644 1.907 1.848 1.191 0 0m3.322.775c.032-2.196 4.782-3.583 5.773-1.433-.204 1.022-5.228.049-2.259 1.492 1.833 1.819-1.03 4.417-2.958 3.7-.936-1.554 1.696-1.23 2.419-2.234.79-1.241-2.86-.472-2.975-1.525m5.732-.952c-.77-1.925 2.478-1.122 3.54-1.35 1.077-1.273 4.342.785 2.14 1.189-2.383-.588-2.584 1.932-3.346 3.515-.022.725.457 2.044-.792 1.315-1.403-1.092.63-3.531.388-4.392-.605-.01-1.602.363-1.93-.277" style="font-size:18.5439px;line-height:1.2;font-family:&quot;Permanent Marker&quot;;-inkscape-font-specification:&quot;Permanent Marker&quot;;letter-spacing:2.00275px;display:inline;opacity:1;fill:#217821;stroke-width:2.4467;stroke-linecap:round;stroke-linejoin:round;stroke-miterlimit:2;paint-order:markers stroke fill" transform="translate(-285.326 -234.75)scale(1.20075)"/></g></g><g style="display:inline;opacity:1"><path d="M110.299 255.913c-6.593-.166-13.169 7.453-5.238 17.735-3.97 12.45-4.125 24.15-3.763 33.015-12.035-7.946-29.055-25.385-32.148-27.782-1.583-1.227-2.36 3.833-1.61 6.618 4.186 15.566 20.211 31.704 32.866 37.92-11.145 19.262-9.47 35.883-2.57 47.174 0 8.902 7.015 32.017 7.466 40.39.061 1.145-4.872 2.945-4.96 6.24.469 2.425 17.357 2.268 18.975.59.988-.619-.586-4.413-.66-7.58-.402-17.342 4.143-35.455 6.687-35.455 2.543 0 7.089 18.113 6.687 35.456-.074 3.166-1.648 6.96-.66 7.579 1.618 1.678 18.506 1.835 18.975-.59-.088-3.295-5.021-5.095-4.96-6.24.45-8.373 7.465-31.488 7.465-40.39 6.957-11.382 8.603-28.18-2.842-47.642 12.68-6.158 28.82-22.365 33.023-37.995.75-2.785-.027-7.844-1.61-6.618-3.08 2.388-19.98 19.7-32.007 27.689.328-8.786.088-20.225-3.789-32.379 12.086-15.668-9.515-25.151-13.528-10.33-1.42-.285-12.088-.285-13.508 0-1.38-5.095-4.838-7.318-8.291-7.405" style="display:inline;opacity:1;fill:#ff80b2;fill-opacity:1;stroke-width:3.96875;stroke-linecap:square;stroke-miterlimit:2;paint-order:fill markers stroke" transform="translate(-75.11 -235.98)scale(1.20075)"/><path d="M116.818 226.495c-.55-.007-.99.167-1.099.622-.306 1.274 3.25 1.733 3.844 1.085q-.492-.647-.996-1.245c-.543-.268-1.2-.455-1.75-.462m3.157 3.883c-.38.028-.671.182-.75.52-.22.929 1.95 1.344 2.861 1.087a39 39 0 0 0-.84-1.372c-.427-.166-.893-.264-1.271-.235m2.016 3.688c-.43.006-.772.156-.859.525-.218.927 1.941 1.343 2.856 1.09a38 38 0 0 0-.6-1.275c-.446-.208-.966-.346-1.397-.34m-30.853-15.002c.474.278.76.654.619 1.1-.397 1.249-3.679-.197-3.851-1.06a32 32 0 0 1 1.496-.55c.603.052 1.263.232 1.736.51m-4.71 1.69c.31.22.48.503.374.833-.293.909-2.365.142-3.012-.55q.712-.387 1.429-.74c.45.08.9.237 1.21.457m-3.633 2.114c.366.228.58.532.463.893-.292.907-2.356.146-3.007-.545q.58-.4 1.172-.78c.489.053 1.006.204 1.372.432m9.093-10.564c-.245-2.84-.041-5.412.506-7.709a3.446 3.927 15.572 0 1 1.293.076 3.446 3.927 15.572 0 1 2.266 4.707 3.446 3.927 15.572 0 1-4.065 2.926m27.638 8.146a3.446 3.927 15.572 0 1-1.86-4.563 3.446 3.927 15.572 0 1 4.374-2.857 3.446 3.927 15.572 0 1 1.169.624c-.768 2.232-1.967 4.517-3.683 6.796m-20.403 27.74c.073-.262-.83-.743-2.017-1.074-1.187-.33-2.209-.386-2.282-.124s.83.743 2.017 1.074c1.188.331 2.21.387 2.282.124m1.78-2.847c.144-.512-1.075-1.3-2.721-1.758-1.646-.459-3.097-.415-3.24.097-.142.513 1.077 1.3 2.723 1.759s3.096.415 3.239-.098m11.207-24.629c.365-1.308-2.459-3.238-6.306-4.31s-7.262-.88-7.627.428c-.364 1.308 2.459 3.238 6.306 4.31s7.262.88 7.627-.428m3.454-12.391c.364-1.309-2.46-3.239-6.307-4.311s-7.262-.88-7.626.428 2.458 3.238 6.306 4.31c3.847 1.073 7.262.881 7.627-.427m-10.142 33.059c.266-.955-2.005-2.422-5.072-3.277-3.067-.854-5.769-.773-6.035.182-.266.954 2.004 2.421 5.071 3.276s5.77.774 6.036-.181m1.353-62.26c-2.25 2.334 2.933 5.854 4.038 2.632.63-1.835-1.96-4.784-4.038-2.631m13.297 3.706c-2.252 2.334 2.932 5.853 4.037 2.632.63-1.836-1.96-4.784-4.037-2.632m4.002 17.05c.241-1.917.383-4.331.504-6.785-3.67-2.616-4.734 4.973-.504 6.785m-25.396-7.077c.785-1.766 1.912-3.906 3.077-6.068 4.494-.34 1.48 6.704-3.077 6.068" style="display:inline;opacity:1;fill:#000;fill-opacity:1;stroke-width:2.83457;stroke-linecap:square;stroke-miterlimit:2;paint-order:fill markers stroke" transform="rotate(195.572 -117.822 325.482)scale(-2.46314 2.46314)"/><path d="M101.558 305.554c4.71-.076 8.8 4.106 23.319 4.586 14.77.49 14.354-4.224 25.058-5.365 1.924-.205 1.002-8.9.272-11.494-1.34-4.765-6.672 1.194-23.471 1.473-19.232.32-25.16-2.384-26.169 1.88-.544 2.3-.058 8.937.99 8.92" style="display:inline;opacity:1;fill:#06f;fill-opacity:1;stroke:none;stroke-width:7.50668;stroke-linecap:square;stroke-miterlimit:2;paint-order:fill markers stroke" transform="translate(-75.11 -235.98)scale(1.20075)"/><path d="M62.553 196.528c1.68 21.291 3.966 44.139 8.35 83.889 1.611 1.48 3.993 3.759 6.82 6.415-2.276-25.88-3.81-44.849-4.093-47.22 30.052 8.669 68.18 11.526 102.903.182-.282 2.354-1.699 21.056-3.83 46.633 2.545-2.39 4.737-4.484 6.344-5.978 3.843-39.77 5.524-62.624 7.205-83.92-42.512 9.501-84.259 8.99-123.699 0M72.778 297.31c3.381 30.291 7.825 69.348 13.8 121.994h4.963c-4.327-31.406-8.71-75.933-12.064-112.835-2.49-2.897-4.769-5.982-6.699-9.159m104.596.138c-1.852 2.959-4 5.831-6.331 8.538-3.198 36.968-7.44 81.748-11.788 113.318h4.962c5.967-52.566 10.127-91.584 13.157-121.856" style="opacity:1;fill:#fff;stroke-width:0;stroke-linecap:round;stroke-linejoin:round;stroke-miterlimit:2;paint-order:markers stroke fill" transform="translate(-75.11 -235.98)scale(1.20075)"/></g><g style="display:inline;opacity:1"><path d="M-10.71 251.486c-4.358.268-9.226 4.345-11.742 14.754-5.972 4.525-7.277 9.994-9.232 14.543-4.696 10.928-8.223 29.516-8.585 35.308-.362 5.791-2.448 34.485 18.1 52.094 6.71 5.75-3.665 47.74 2.227 47.74 22.577 0 28.053.845 17.194-7.782-8.545-6.789-4.612-26.221 3.731-33.614 2.715-2.407 5.06-4.916 7.052-7.5-2.655 1.462-3.795-10.4-9.343-16.889-14.2-16.607-7.518-21.085-5.969-37.969a56 56 0 0 0-.12-4.92c6.923-6.621 12.861-14.675 15.507-22.747.898-2.74.396-7.834-1.25-6.695-1.832 1.267-8.428 7.153-16.067 13.334-.721-9.85 1.598-16.622 19.172-15.681-4.09-6.064-11.502-9.273-13.75-8.628 4.73-7.997-.554-15.74-6.925-15.348m20.675 23.976c.57.902 1.045 1.755 1.434 2.567a17 17 0 0 0-1.434-2.567m2.143 48.34c.976 1.809 1.755 3.632 2.424 5.455a41 41 0 0 0-2.424-5.456" style="display:inline;opacity:1;fill:#ff80b2;fill-opacity:1;stroke:none;stroke-width:0;stroke-linecap:round;stroke-linejoin:round;stroke-miterlimit:2;stroke-dasharray:none;stroke-opacity:1;paint-order:markers stroke fill" transform="translate(-75.11 -235.98)scale(1.20075)"/><path d="M13.33 194.712c-20.6.695-33.83 53.251-8.914 47.073-.236 1.976-1.254 15.065-2.816 33.932-9.973 1.455-11.393 7.425-10.807 15.426 7.639-6.18 14.235-12.067 16.066-13.334 1.647-1.14 2.149 3.955 1.25 6.695-2.645 8.072-8.583 16.126-15.507 22.747.108 1.628.16 3.273.121 4.92-1.41 15.371-7.075 20.46 2.635 33.779-2.451 25.346-5.212 51.024-8.039 71.544h4.962c2.83-24.93 5.253-46.813 7.342-66.16 5.136 7.17 6.075 18.762 9.039 15.132 8.467-10.37 11.903-26.973 3.446-42.665-3.7-6.865-6.351-7.781-8.427-10.872.65-6.305 1.255-12.27 1.82-17.93 4.887-5 11.095-9.05 4.464-19.537a60 60 0 0 0-2.54-.085c3.622-37.77 5.256-59.95 6.89-80.659q-.495-.022-.986-.006zm-18.288 58.869c-4.61 1.248-4.191 10.026-2.444 11.96.902.999 2.301 1.335 3.618 1.293 3.294-5.812 2.164-9.936-1.174-13.253" style="display:inline;opacity:1;fill:#fff;fill-opacity:1;stroke:none;stroke-width:0;stroke-linecap:round;stroke-linejoin:round;stroke-miterlimit:2;stroke-dasharray:none;stroke-opacity:1;paint-order:markers stroke fill" transform="translate(-75.11 -235.98)scale(1.20075)"/><path d="M-38.372 289.702c-.657.035-1.134.294-1.383.835-1.038 2.258-2.819 6.373-2.296 9.865.215 1.436 9.091 2.07 16.746 2.547 1.8-1.115 3.692-2.393 5.622-3.77-6.363-3.359-15.144-9.668-18.69-9.477m44.926 7.616c-1.553-.026-3.662.435-6.006 1.05a73 73 0 0 1-5.997 6.954c7.489 1.153 15.88 2.15 15.34.372-.871-2.86-1.688-8.207-2.707-8.334a6 6 0 0 0-.63-.042" style="display:inline;opacity:1;fill:#06f;fill-opacity:1;stroke:none;stroke-width:8.60789;stroke-linecap:square;stroke-miterlimit:2;paint-order:fill markers stroke" transform="translate(-75.11 -235.98)scale(1.20075)"/><path d="M-6.5 302.298c-1.342-.04-2.503.298-2.591 1.27-.07.776.494 1.289 1.328 1.58.632.22 1.417.312 2.196.295q1.158-1.18 2.263-2.41c-.851-.407-2.086-.7-3.197-.735m-6.099 5.953c-1.345-.043-2.511.296-2.599 1.27-.064.71.403 1.2 1.122 1.501.558.234 1.267.352 1.995.371q1.395-1.14 2.76-2.362c-.85-.43-2.129-.744-3.278-.78m-9.292 4.865c-1.38.043-2.493.468-2.58 1.494-.083.956.664 1.579 1.737 1.92.9.287 2.029.38 3.096.302a69 69 0 0 0 3.175-2.108c-.712-.818-2.909-1.52-4.822-1.603a8 8 0 0 0-.606-.004zm19.398-56.048c-5.796-.798-5.39 7.788-1.291 9.766 1.365-1.884 2.943-6.603 1.29-9.766M-26.14 269.78a22 22 0 0 0-2.115 3.13 5.103 1.734 0 0 0 4.282-1.712 5.103 1.734 0 0 0-2.167-1.418m-2.887 4.617c-.783 1.62-1.388 3.23-1.996 4.767a5.494 2.549 0 0 0 4.852-2.532 5.494 2.549 0 0 0-2.856-2.235m-2.93 7.028c-.842 2.031-1.645 4.3-2.396 6.688a7.444 3.454 0 0 0 7.237-3.453 7.444 3.454 0 0 0-4.84-3.235m-7.07 27.706a9.94 4.612 0 0 0-.32.002c-.507 2.969-.827 5.416-.924 6.958-.034.546-.083 1.295-.128 2.22a9.94 4.612 0 0 0 1.372.044 9.94 4.612 0 0 0 9.94-4.612 9.94 4.612 0 0 0-9.94-4.612m4.607 37.113a9.94 4.612 0 0 0-2.305.126 55 55 0 0 0 4.065 9.025 9.94 4.612 0 0 0 8.18-4.54 9.94 4.612 0 0 0-9.94-4.611m15.281 22.482a8.788 6.93 0 0 0-2.348.252c1.573 2.398 1.84 7.543 1.591 13.582a8.788 6.93 0 0 0 .757.026 8.788 6.93 0 0 0 8.789-6.93 8.788 6.93 0 0 0-8.789-6.93m4.438-37.35a8.788 6.93 0 0 1-8.789 6.93 8.788 6.93 0 0 1-8.788-6.93 8.788 6.93 0 0 1 8.788-6.93 8.788 6.93 0 0 1 8.789 6.93m27.163-50.534a34 34 0 0 0-3.914.622c-.012 1.067-.156 2.172-.44 3.04a37 37 0 0 1-1.166 3.079 79 79 0 0 1 5.127-.336c.807-1.807 1.073-3.871.393-6.405" style="display:inline;opacity:1;stroke-width:5.81468;stroke-linecap:square;stroke-miterlimit:2;paint-order:fill markers stroke" transform="translate(-75.11 -235.98)scale(1.20075)"/></g></svg>