<svg xmlns="http://www.w3.org/2000/svg" xml:space="preserve" width="61.642" height="55.498" viewBox="0 0 16.309 14.684"><g stroke="none" style="display:inline;stroke:#1a1a1a;stroke-width:1.00371;stroke-dasharray:none;stroke-opacity:1"><path d="M123.556 79.362c-12.176.548-23.076 8.612-23.42 22.121-.29 11.405 6.932 18.504 11.688 23.876 1.19 1.342 2.226 2.565 2.962 3.856s1.218 2.89.626 4.446c-.593 1.557-1.968 2.571-3.79 3.386-1.821.814-4.241 1.49-7.534 2.15-9.504 1.906-17.69 1.632-24.909-1.164-6.44-2.495-11.993-7.076-17.073-13.486-1.974 3.346-3.904 7.903-4.846 13.454-1.141 6.72-.928 14.338 1.84 21.35 2.77 7.01 8.034 13.468 17.351 18.094 9.317 4.625 22.741 7.37 41.645 6.568 14.672-.621 24.73-3.74 31.37-7.986 6.642-4.246 9.939-9.579 11.234-15.042s.516-11.107-1.303-15.69c-1.82-4.584-4.772-8.03-7.091-9.155-7.155-3.472-10.742-6.187-11.875-9.562-.566-1.688-.269-3.453.471-4.85s1.837-2.545 3.045-3.659l.372-.34a27 27 0 0 1-3.42-.852c-1.305-.426-2.439-.933-3.382-1.65-.943-.718-1.781-1.78-1.865-3.133-.083-1.352.616-2.573 1.6-3.535s2.322-1.81 4.126-2.68c2.974-1.436 3.878-4.62 5.313-7.674.674-1.434 1.539-2.994 3.231-3.766-6.103-11.07-16.557-15.519-26.366-15.077m24.208 34.906c.965.095 1.9.205 2.934.238-1.032-.034-1.972-.143-2.934-.238" style="baseline-shift:baseline;display:inline;overflow:visible;opacity:1;fill:#333;stroke:none;stroke-width:1.00371;stroke-linecap:round;stroke-linejoin:round;stroke-miterlimit:0;stroke-dasharray:none;stroke-opacity:1;stop-color:#000;stop-opacity:1" transform="translate(-6.886 -9.852)scale(.13052)"/><path d="M129.672 167.442c-15.605 9.809-41.61-.665-59.025 8.136 24.953 12.822 57.416 11.813 78.82.45 6.962-3.697 9.938-9.58 11.233-15.043s.516-11.107-1.303-15.69c-1.82-4.584-4.772-8.03-7.091-9.155-7.155-3.472-7.68-5.017-11.875-9.562-9.778 5.626 18.966 18.716-10.76 40.864" style="baseline-shift:baseline;display:inline;overflow:visible;opacity:1;fill:#fff;stroke:none;stroke-width:1.00371;stroke-linecap:round;stroke-linejoin:round;stroke-miterlimit:0;stroke-dasharray:none;stroke-opacity:1;stop-color:#000;stop-opacity:1" transform="translate(-6.886 -9.852)scale(.13052)"/><path d="M123.382 75.521c-13.815.622-26.695 10.304-27.09 25.867-.333 13.079 8.079 21.358 12.653 26.524 1.144 1.291 2.042 2.401 2.499 3.203.229.402.338.668.38.847.042.18.02.265-.004.329-.022.057-.123.223-.388.443s-.696.5-1.378.804c-1.364.61-3.582 1.262-6.727 1.893-9.02 1.81-16.369 1.49-22.759-.986s-11.928-7.146-17.195-14.448a1.945 1.945 0 0 0-3.132-.028c-2.917 3.9-5.537 10.124-6.77 17.39-1.235 7.267-1.037 15.576 2.054 23.404s9.13 15.113 19.22 20.122c10.088 5.009 24.162 7.788 43.513 6.968 15.14-.641 25.878-3.856 33.279-8.588 7.4-4.731 11.39-11.025 12.9-17.393s.608-12.76-1.47-17.992c-2.076-5.232-5.239-9.384-8.983-11.201-3.42-1.66-5.789-3.157-7.357-4.407s-2.335-2.253-2.558-2.918c-.225-.671-.16-1.09.23-1.825.388-.732 1.192-1.655 2.257-2.637.863-.796 1.884-1.628 2.958-2.526 3.821.203 7.957-.046 11.763-.812 6.559-1.32 10.49-3.317 12.876-6.074 2.387-2.756 2.978-5.998 3.476-9.114.16-1.002.158-2.002-.336-2.938-.496-.938-1.463-1.517-2.297-1.738-1.659-.442-3.219-.164-5.084 0-3.732.327-8.346.623-12.955-2.06-.986-.573-1.909-1.01-2.787-1.294-6.64-13.443-19.15-19.339-30.789-18.815m.174 3.88c9.788-.44 20.22 3.992 26.318 15.03-1.678.784-2.55 2.334-3.22 3.758-.717 1.529-1.299 3.085-2.074 4.438s-1.74 2.502-3.219 3.215c-1.806.871-3.149 1.722-4.137 2.689-.99.967-1.696 2.196-1.612 3.563.085 1.367.932 2.442 1.88 3.164.949.72 2.087 1.228 3.394 1.655 1.016.331 2.148.61 3.354.835q-.163.146-.321.293c-1.21 1.115-2.31 2.263-3.053 3.666-.744 1.406-1.041 3.183-.47 4.882 1.138 3.393 4.736 6.113 11.893 9.586 2.304 1.118 5.255 4.558 7.072 9.135 1.816 4.577 2.595 10.213 1.302 15.667-1.292 5.454-4.583 10.777-11.217 15.018-6.633 4.241-16.683 7.357-31.35 7.978-18.9.801-32.32-1.943-41.63-6.565-9.309-4.621-14.565-11.067-17.33-18.07s-2.977-14.616-1.837-21.33c.938-5.523 2.85-10.056 4.815-13.394 5.072 6.389 10.618 10.963 17.049 13.454 7.226 2.8 15.423 3.075 24.932 1.168 3.295-.661 5.717-1.337 7.543-2.154s3.211-1.84 3.809-3.41.11-3.18-.63-4.477c-.738-1.296-1.776-2.521-2.965-3.865-4.758-5.373-11.966-12.46-11.677-23.847.343-13.49 11.22-21.534 23.38-22.082m-5.258 64.867c-4.268-.282-8.594.797-13.086 2.083-8.985 2.573-18.649 6.042-29.652 3.306a1.91 1.91 0 0 0-2.063.78 1.91 1.91 0 0 0 0 2.21c7.485 10.81 17.312 16.01 26.587 18.074s17.995 1.077 23.721-.309c4.363-1.055 7.857-3.906 9.329-7.685 1.472-3.78.713-8.431-2.8-12.361-3.598-4.026-7.767-5.816-12.036-6.098m-.258 3.876c3.425.227 6.377 1.425 9.4 4.807 2.736 3.061 3.027 5.925 2.075 8.37s-3.355 4.523-6.624 5.314c-5.253 1.27-13.46 2.19-21.967.297-7.242-1.612-14.63-5.43-20.957-12.627 10.019 1 18.838-2.083 26.318-4.224 4.393-1.258 8.331-2.163 11.755-1.937" style="baseline-shift:baseline;display:inline;overflow:visible;opacity:1;vector-effect:none;stroke:none;stroke-width:1.00371;stroke-linecap:round;stroke-linejoin:round;stroke-miterlimit:0;stroke-dasharray:none;stroke-opacity:1;stop-color:#000;stop-opacity:1" transform="translate(-6.886 -9.852)scale(.13052)"/><path d="M135.605 95.162a4.87 4.87 0 0 1-4.869 4.87 4.87 4.87 0 0 1-4.868-4.87 4.87 4.87 0 0 1 4.868-4.868 4.87 4.87 0 0 1 4.87 4.868" style="display:inline;fill:#d40000;stroke:none;stroke-width:1.00371;stroke-linecap:round;stroke-linejoin:round;stroke-miterlimit:0;stroke-dasharray:none;stroke-opacity:1;paint-order:markers stroke fill" transform="translate(-6.886 -9.852)scale(.13052)"/></g></svg>